<svg xmlns="http://www.w3.org/2000/svg" viewBox="0 0 1180 620" role="img" aria-labelledby="title desc">
<title id="title">Target object category distribution</title>
<desc id="desc">Stacked MCQ counts by target object category, regenerated from key_object_name.pdf vector data.</desc>
<style>text{font-family:Inter,Arial,sans-serif}.title{font-size:24px;font-weight:800;letter-spacing:.08em}.sub{font-size:12px;fill:#6f6b63}.axis{font-size:11px;fill:#6f6b63}.label{font-size:10px;fill:#111}.grid{stroke:#d8d2c6;stroke-width:1}.axisline{stroke:#111;stroke-width:1.3}</style>
<rect width="1180" height="620" fill="#f6f4ef"/>
<text x="76" y="42" class="title">TARGET OBJECT COVERAGE</text>
<line x1="76" y1="486.0" x2="1116" y2="486.0" class="grid"/>
<text x="60" y="490.0" text-anchor="end" class="axis">0</text>
<line x1="76" y1="408.0" x2="1116" y2="408.0" class="grid"/>
<text x="60" y="412.0" text-anchor="end" class="axis">100</text>
<line x1="76" y1="330.0" x2="1116" y2="330.0" class="grid"/>
<text x="60" y="334.0" text-anchor="end" class="axis">200</text>
<line x1="76" y1="252.0" x2="1116" y2="252.0" class="grid"/>
<text x="60" y="256.0" text-anchor="end" class="axis">300</text>
<line x1="76" y1="174.0" x2="1116" y2="174.0" class="grid"/>
<text x="60" y="178.0" text-anchor="end" class="axis">400</text>
<line x1="76" y1="96.0" x2="1116" y2="96.0" class="grid"/>
<text x="60" y="100.0" text-anchor="end" class="axis">500</text>
<line x1="76" y1="96" x2="76" y2="486" class="axisline"/>
<line x1="76" y1="486" x2="1116" y2="486" class="axisline"/>
<text x="24" y="291.0" transform="rotate(-90 24 291.0)" class="axis" text-anchor="middle">MCQ count</text>
<rect x="76.0" y="454.0" width="24" height="32.0" fill="#96a8c2"/>
<rect x="76.0" y="376.0" width="24" height="78.0" fill="#6b85b0"/>
<rect x="76.0" y="308.9" width="24" height="67.1" fill="#96c44c"/>
<rect x="76.0" y="252.8" width="24" height="56.2" fill="#5aac95"/>
<rect x="76.0" y="168.5" width="24" height="84.2" fill="#d381ab"/>
<rect x="76.0" y="140.5" width="24" height="28.1" fill="#e68155"/>
<rect x="76.0" y="129.5" width="24" height="10.9" fill="#7b95b8"/>
<rect x="76.0" y="114.7" width="24" height="14.8" fill="#f5c928"/>
<text x="88.0" y="504" transform="rotate(48 88.0 504)" text-anchor="start" class="label">Building parts</text>
<rect x="113.6" y="416.6" width="24" height="69.4" fill="#96a8c2"/>
<rect x="113.6" y="333.9" width="24" height="82.7" fill="#6b85b0"/>
<rect x="113.6" y="291.0" width="24" height="42.9" fill="#96c44c"/>
<rect x="113.6" y="229.4" width="24" height="61.6" fill="#5aac95"/>
<rect x="113.6" y="195.8" width="24" height="33.5" fill="#d381ab"/>
<rect x="113.6" y="171.7" width="24" height="24.2" fill="#e68155"/>
<rect x="113.6" y="150.6" width="24" height="21.1" fill="#7b95b8"/>
<rect x="113.6" y="128.8" width="24" height="21.8" fill="#f5c928"/>
<text x="125.6" y="504" transform="rotate(48 125.6 504)" text-anchor="start" class="label">Furniture</text>
<rect x="151.3" y="425.2" width="24" height="60.8" fill="#96a8c2"/>
<rect x="151.3" y="411.9" width="24" height="13.3" fill="#6b85b0"/>
<rect x="151.3" y="346.4" width="24" height="65.5" fill="#96c44c"/>
<rect x="151.3" y="324.5" width="24" height="21.8" fill="#5aac95"/>
<rect x="151.3" y="298.8" width="24" height="25.7" fill="#d381ab"/>
<rect x="151.3" y="267.6" width="24" height="31.2" fill="#e68155"/>
<rect x="151.3" y="252.8" width="24" height="14.8" fill="#7b95b8"/>
<rect x="151.3" y="246.5" width="24" height="6.2" fill="#f5c928"/>
<text x="163.3" y="504" transform="rotate(48 163.3 504)" text-anchor="start" class="label">Clothing</text>
<rect x="188.9" y="405.7" width="24" height="80.3" fill="#96a8c2"/>
<rect x="188.9" y="367.4" width="24" height="38.2" fill="#6b85b0"/>
<rect x="188.9" y="351.8" width="24" height="15.6" fill="#96c44c"/>
<rect x="188.9" y="314.4" width="24" height="37.4" fill="#5aac95"/>
<rect x="188.9" y="302.7" width="24" height="11.7" fill="#d381ab"/>
<rect x="188.9" y="280.9" width="24" height="21.8" fill="#e68155"/>
<rect x="188.9" y="262.1" width="24" height="18.7" fill="#7b95b8"/>
<rect x="188.9" y="250.4" width="24" height="11.7" fill="#f5c928"/>
<text x="200.9" y="504" transform="rotate(48 200.9 504)" text-anchor="start" class="label">Storage</text>
<rect x="226.5" y="440.0" width="24" height="46.0" fill="#96a8c2"/>
<rect x="226.5" y="408.8" width="24" height="31.2" fill="#6b85b0"/>
<rect x="226.5" y="337.8" width="24" height="71.0" fill="#96c44c"/>
<rect x="226.5" y="319.9" width="24" height="17.9" fill="#5aac95"/>
<rect x="226.5" y="294.1" width="24" height="25.7" fill="#d381ab"/>
<rect x="226.5" y="277.0" width="24" height="17.2" fill="#e68155"/>
<rect x="226.5" y="265.3" width="24" height="11.7" fill="#7b95b8"/>
<rect x="226.5" y="255.9" width="24" height="9.4" fill="#f5c928"/>
<text x="238.5" y="504" transform="rotate(48 238.5 504)" text-anchor="start" class="label">Bedding</text>
<rect x="264.1" y="447.8" width="24" height="38.2" fill="#96a8c2"/>
<rect x="264.1" y="413.5" width="24" height="34.3" fill="#6b85b0"/>
<rect x="264.1" y="379.1" width="24" height="34.3" fill="#96c44c"/>
<rect x="264.1" y="345.6" width="24" height="33.5" fill="#5aac95"/>
<rect x="264.1" y="311.3" width="24" height="34.3" fill="#d381ab"/>
<rect x="264.1" y="293.3" width="24" height="17.9" fill="#e68155"/>
<rect x="264.1" y="280.9" width="24" height="12.5" fill="#7b95b8"/>
<rect x="264.1" y="260.6" width="24" height="20.3" fill="#f5c928"/>
<text x="276.1" y="504" transform="rotate(48 276.1 504)" text-anchor="start" class="label">Other</text>
<rect x="301.8" y="453.2" width="24" height="32.8" fill="#96a8c2"/>
<rect x="301.8" y="389.3" width="24" height="64.0" fill="#6b85b0"/>
<rect x="301.8" y="335.5" width="24" height="53.8" fill="#96c44c"/>
<rect x="301.8" y="313.6" width="24" height="21.8" fill="#5aac95"/>
<rect x="301.8" y="303.5" width="24" height="10.1" fill="#d381ab"/>
<rect x="301.8" y="294.9" width="24" height="8.6" fill="#e68155"/>
<rect x="301.8" y="276.2" width="24" height="18.7" fill="#7b95b8"/>
<rect x="301.8" y="266.0" width="24" height="10.1" fill="#f5c928"/>
<text x="313.8" y="504" transform="rotate(48 313.8 504)" text-anchor="start" class="label">Decor</text>
<rect x="339.4" y="386.2" width="24" height="99.8" fill="#96a8c2"/>
<rect x="339.4" y="355.7" width="24" height="30.4" fill="#6b85b0"/>
<rect x="339.4" y="347.9" width="24" height="7.8" fill="#96c44c"/>
<rect x="339.4" y="321.4" width="24" height="26.5" fill="#5aac95"/>
<rect x="339.4" y="301.9" width="24" height="19.5" fill="#d381ab"/>
<rect x="339.4" y="291.8" width="24" height="10.1" fill="#e68155"/>
<rect x="339.4" y="278.5" width="24" height="13.3" fill="#7b95b8"/>
<rect x="339.4" y="269.2" width="24" height="9.4" fill="#f5c928"/>
<text x="351.4" y="504" transform="rotate(48 351.4 504)" text-anchor="start" class="label">Electronics</text>
<rect x="377.0" y="462.6" width="24" height="23.4" fill="#96a8c2"/>
<rect x="377.0" y="426.7" width="24" height="35.9" fill="#6b85b0"/>
<rect x="377.0" y="400.2" width="24" height="26.5" fill="#96c44c"/>
<rect x="377.0" y="385.4" width="24" height="14.8" fill="#5aac95"/>
<rect x="377.0" y="331.6" width="24" height="53.8" fill="#d381ab"/>
<rect x="377.0" y="323.0" width="24" height="8.6" fill="#e68155"/>
<rect x="377.0" y="309.7" width="24" height="13.3" fill="#7b95b8"/>
<rect x="377.0" y="298.0" width="24" height="11.7" fill="#f5c928"/>
<text x="389.0" y="504" transform="rotate(48 389.0 504)" text-anchor="start" class="label">Lighting</text>
<rect x="414.7" y="455.6" width="24" height="30.4" fill="#96a8c2"/>
<rect x="414.7" y="415.8" width="24" height="39.8" fill="#6b85b0"/>
<rect x="414.7" y="384.6" width="24" height="31.2" fill="#96c44c"/>
<rect x="414.7" y="355.7" width="24" height="28.9" fill="#5aac95"/>
<rect x="414.7" y="335.5" width="24" height="20.3" fill="#d381ab"/>
<rect x="414.7" y="326.1" width="24" height="9.4" fill="#e68155"/>
<rect x="414.7" y="316.0" width="24" height="10.1" fill="#7b95b8"/>
<rect x="414.7" y="306.6" width="24" height="9.4" fill="#f5c928"/>
<text x="426.7" y="504" transform="rotate(48 426.7 504)" text-anchor="start" class="label">Plants</text>
<rect x="452.3" y="434.5" width="24" height="51.5" fill="#96a8c2"/>
<rect x="452.3" y="418.9" width="24" height="15.6" fill="#6b85b0"/>
<rect x="452.3" y="409.6" width="24" height="9.4" fill="#96c44c"/>
<rect x="452.3" y="390.1" width="24" height="19.5" fill="#5aac95"/>
<rect x="452.3" y="383.8" width="24" height="6.2" fill="#d381ab"/>
<rect x="452.3" y="367.4" width="24" height="16.4" fill="#e68155"/>
<rect x="452.3" y="358.1" width="24" height="9.4" fill="#7b95b8"/>
<rect x="452.3" y="349.5" width="24" height="8.6" fill="#f5c928"/>
<text x="464.3" y="504" transform="rotate(48 464.3 504)" text-anchor="start" class="label">Tableware</text>
<rect x="489.9" y="436.1" width="24" height="49.9" fill="#96a8c2"/>
<rect x="489.9" y="419.7" width="24" height="16.4" fill="#6b85b0"/>
<rect x="489.9" y="410.3" width="24" height="9.4" fill="#96c44c"/>
<rect x="489.9" y="394.7" width="24" height="15.6" fill="#5aac95"/>
<rect x="489.9" y="390.1" width="24" height="4.7" fill="#d381ab"/>
<rect x="489.9" y="379.9" width="24" height="10.1" fill="#e68155"/>
<rect x="489.9" y="369.0" width="24" height="10.9" fill="#7b95b8"/>
<rect x="489.9" y="357.3" width="24" height="11.7" fill="#f5c928"/>
<text x="501.9" y="504" transform="rotate(48 501.9 504)" text-anchor="start" class="label">Sports &amp; Hobbies</text>
<rect x="527.6" y="460.3" width="24" height="25.7" fill="#96a8c2"/>
<rect x="527.6" y="451.7" width="24" height="8.6" fill="#6b85b0"/>
<rect x="527.6" y="444.7" width="24" height="7.0" fill="#96c44c"/>
<rect x="527.6" y="418.9" width="24" height="25.7" fill="#5aac95"/>
<rect x="527.6" y="415.0" width="24" height="3.9" fill="#d381ab"/>
<rect x="527.6" y="404.1" width="24" height="10.9" fill="#e68155"/>
<rect x="527.6" y="401.0" width="24" height="3.1" fill="#7b95b8"/>
<rect x="527.6" y="396.3" width="24" height="4.7" fill="#f5c928"/>
<text x="539.6" y="504" transform="rotate(48 539.6 504)" text-anchor="start" class="label">Food &amp; Beverages</text>
<rect x="565.2" y="479.0" width="24" height="7.0" fill="#96a8c2"/>
<rect x="565.2" y="470.4" width="24" height="8.6" fill="#6b85b0"/>
<rect x="565.2" y="463.4" width="24" height="7.0" fill="#96c44c"/>
<rect x="565.2" y="455.6" width="24" height="7.8" fill="#5aac95"/>
<rect x="565.2" y="438.4" width="24" height="17.2" fill="#d381ab"/>
<rect x="565.2" y="424.4" width="24" height="14.0" fill="#e68155"/>
<rect x="565.2" y="418.1" width="24" height="6.2" fill="#7b95b8"/>
<rect x="565.2" y="411.9" width="24" height="6.2" fill="#f5c928"/>
<text x="577.2" y="504" transform="rotate(48 577.2 504)" text-anchor="start" class="label">Major Appliances</text>
<rect x="602.8" y="466.5" width="24" height="19.5" fill="#96a8c2"/>
<rect x="602.8" y="457.9" width="24" height="8.6" fill="#6b85b0"/>
<rect x="602.8" y="454.8" width="24" height="3.1" fill="#96c44c"/>
<rect x="602.8" y="450.1" width="24" height="4.7" fill="#5aac95"/>
<rect x="602.8" y="443.1" width="24" height="7.0" fill="#d381ab"/>
<rect x="602.8" y="434.5" width="24" height="8.6" fill="#e68155"/>
<rect x="602.8" y="427.5" width="24" height="7.0" fill="#7b95b8"/>
<rect x="602.8" y="423.6" width="24" height="3.9" fill="#f5c928"/>
<text x="614.8" y="504" transform="rotate(48 614.8 504)" text-anchor="start" class="label">Small Appliances</text>
<rect x="640.4" y="475.9" width="24" height="10.1" fill="#96a8c2"/>
<rect x="640.4" y="466.5" width="24" height="9.4" fill="#6b85b0"/>
<rect x="640.4" y="455.6" width="24" height="10.9" fill="#96c44c"/>
<rect x="640.4" y="446.2" width="24" height="9.4" fill="#5aac95"/>
<rect x="640.4" y="443.1" width="24" height="3.1" fill="#d381ab"/>
<rect x="640.4" y="436.9" width="24" height="6.2" fill="#e68155"/>
<rect x="640.4" y="433.0" width="24" height="3.9" fill="#7b95b8"/>
<rect x="640.4" y="426.7" width="24" height="6.2" fill="#f5c928"/>
<text x="652.4" y="504" transform="rotate(48 652.4 504)" text-anchor="start" class="label">Books</text>
<rect x="678.1" y="478.2" width="24" height="7.8" fill="#96a8c2"/>
<rect x="678.1" y="474.3" width="24" height="3.9" fill="#6b85b0"/>
<rect x="678.1" y="469.6" width="24" height="4.7" fill="#96c44c"/>
<rect x="678.1" y="461.0" width="24" height="8.6" fill="#5aac95"/>
<rect x="678.1" y="452.5" width="24" height="8.6" fill="#d381ab"/>
<rect x="678.1" y="447.0" width="24" height="5.5" fill="#e68155"/>
<rect x="678.1" y="443.9" width="24" height="3.1" fill="#7b95b8"/>
<rect x="678.1" y="441.5" width="24" height="2.3" fill="#f5c928"/>
<text x="690.1" y="504" transform="rotate(48 690.1 504)" text-anchor="start" class="label">Kitchen Fixtures</text>
<rect x="715.7" y="472.0" width="24" height="14.0" fill="#96a8c2"/>
<rect x="715.7" y="465.7" width="24" height="6.2" fill="#6b85b0"/>
<rect x="715.7" y="461.0" width="24" height="4.7" fill="#96c44c"/>
<rect x="715.7" y="457.1" width="24" height="3.9" fill="#5aac95"/>
<rect x="715.7" y="456.4" width="24" height="0.8" fill="#d381ab"/>
<rect x="715.7" y="454.8" width="24" height="1.6" fill="#e68155"/>
<rect x="715.7" y="451.7" width="24" height="3.1" fill="#7b95b8"/>
<rect x="715.7" y="450.9" width="24" height="0.8" fill="#f5c928"/>
<text x="727.7" y="504" transform="rotate(48 727.7 504)" text-anchor="start" class="label">Bathroom Supplies</text>
<rect x="753.3" y="472.7" width="24" height="13.3" fill="#96a8c2"/>
<rect x="753.3" y="467.3" width="24" height="5.5" fill="#6b85b0"/>
<rect x="753.3" y="463.4" width="24" height="3.9" fill="#96c44c"/>
<rect x="753.3" y="461.0" width="24" height="2.3" fill="#5aac95"/>
<rect x="753.3" y="458.7" width="24" height="2.3" fill="#d381ab"/>
<rect x="753.3" y="456.4" width="24" height="2.3" fill="#e68155"/>
<rect x="753.3" y="450.9" width="24" height="5.5" fill="#7b95b8"/>
<rect x="753.3" y="450.1" width="24" height="0.8" fill="#f5c928"/>
<text x="765.3" y="504" transform="rotate(48 765.3 504)" text-anchor="start" class="label">Cleaning</text>
<rect x="791.0" y="469.6" width="24" height="16.4" fill="#96a8c2"/>
<rect x="791.0" y="464.2" width="24" height="5.5" fill="#6b85b0"/>
<rect x="791.0" y="460.3" width="24" height="3.9" fill="#5aac95"/>
<rect x="791.0" y="456.4" width="24" height="3.9" fill="#e68155"/>
<rect x="791.0" y="452.5" width="24" height="3.9" fill="#7b95b8"/>
<rect x="791.0" y="451.7" width="24" height="0.8" fill="#f5c928"/>
<text x="803.0" y="504" transform="rotate(48 803.0 504)" text-anchor="start" class="label">Kitchen Tools</text>
<rect x="828.6" y="477.4" width="24" height="8.6" fill="#96a8c2"/>
<rect x="828.6" y="476.6" width="24" height="0.8" fill="#6b85b0"/>
<rect x="828.6" y="475.9" width="24" height="0.8" fill="#96c44c"/>
<rect x="828.6" y="472.7" width="24" height="3.1" fill="#5aac95"/>
<rect x="828.6" y="469.6" width="24" height="3.1" fill="#d381ab"/>
<rect x="828.6" y="464.2" width="24" height="5.5" fill="#e68155"/>
<rect x="828.6" y="463.4" width="24" height="0.8" fill="#7b95b8"/>
<rect x="828.6" y="461.0" width="24" height="2.3" fill="#f5c928"/>
<text x="840.6" y="504" transform="rotate(48 840.6 504)" text-anchor="start" class="label">Cookware</text>
<rect x="866.2" y="484.4" width="24" height="1.6" fill="#96a8c2"/>
<rect x="866.2" y="481.3" width="24" height="3.1" fill="#6b85b0"/>
<rect x="866.2" y="479.0" width="24" height="2.3" fill="#96c44c"/>
<rect x="866.2" y="472.7" width="24" height="6.2" fill="#5aac95"/>
<rect x="866.2" y="468.8" width="24" height="3.9" fill="#d381ab"/>
<rect x="866.2" y="466.5" width="24" height="2.3" fill="#e68155"/>
<rect x="866.2" y="464.9" width="24" height="1.6" fill="#7b95b8"/>
<rect x="866.2" y="464.2" width="24" height="0.8" fill="#f5c928"/>
<text x="878.2" y="504" transform="rotate(48 878.2 504)" text-anchor="start" class="label">Bathroom Fixtures</text>
<rect x="903.9" y="477.4" width="24" height="8.6" fill="#96a8c2"/>
<rect x="903.9" y="473.5" width="24" height="3.9" fill="#6b85b0"/>
<rect x="903.9" y="471.2" width="24" height="2.3" fill="#96c44c"/>
<rect x="903.9" y="469.6" width="24" height="1.6" fill="#5aac95"/>
<rect x="903.9" y="468.8" width="24" height="0.8" fill="#d381ab"/>
<rect x="903.9" y="467.3" width="24" height="1.6" fill="#e68155"/>
<rect x="903.9" y="466.5" width="24" height="0.8" fill="#7b95b8"/>
<text x="915.9" y="504" transform="rotate(48 915.9 504)" text-anchor="start" class="label">Stationery</text>
<rect x="941.5" y="481.3" width="24" height="4.7" fill="#96a8c2"/>
<rect x="941.5" y="478.2" width="24" height="3.1" fill="#6b85b0"/>
<rect x="941.5" y="475.9" width="24" height="2.3" fill="#96c44c"/>
<rect x="941.5" y="473.5" width="24" height="2.3" fill="#5aac95"/>
<rect x="941.5" y="472.7" width="24" height="0.8" fill="#d381ab"/>
<rect x="941.5" y="470.4" width="24" height="2.3" fill="#e68155"/>
<rect x="941.5" y="469.6" width="24" height="0.8" fill="#7b95b8"/>
<rect x="941.5" y="468.1" width="24" height="1.6" fill="#f5c928"/>
<text x="953.5" y="504" transform="rotate(48 953.5 504)" text-anchor="start" class="label">Tools</text>
<rect x="979.1" y="482.9" width="24" height="3.1" fill="#96a8c2"/>
<rect x="979.1" y="482.1" width="24" height="0.8" fill="#6b85b0"/>
<rect x="979.1" y="481.3" width="24" height="0.8" fill="#96c44c"/>
<rect x="979.1" y="479.8" width="24" height="1.6" fill="#5aac95"/>
<rect x="979.1" y="478.2" width="24" height="1.6" fill="#d381ab"/>
<rect x="979.1" y="476.6" width="24" height="1.6" fill="#e68155"/>
<rect x="979.1" y="475.1" width="24" height="1.6" fill="#7b95b8"/>
<rect x="979.1" y="474.3" width="24" height="0.8" fill="#f5c928"/>
<text x="991.1" y="504" transform="rotate(48 991.1 504)" text-anchor="start" class="label">Laundry</text>
<rect x="1016.7" y="482.1" width="24" height="3.9" fill="#96a8c2"/>
<rect x="1016.7" y="480.5" width="24" height="1.6" fill="#6b85b0"/>
<rect x="1016.7" y="479.8" width="24" height="0.8" fill="#96c44c"/>
<rect x="1016.7" y="478.2" width="24" height="1.6" fill="#5aac95"/>
<rect x="1016.7" y="476.6" width="24" height="1.6" fill="#e68155"/>
<rect x="1016.7" y="474.3" width="24" height="2.3" fill="#7b95b8"/>
<text x="1028.7" y="504" transform="rotate(48 1028.7 504)" text-anchor="start" class="label">Personal Care</text>
<rect x="1054.4" y="485.2" width="24" height="0.8" fill="#6b85b0"/>
<rect x="1054.4" y="483.7" width="24" height="1.6" fill="#96c44c"/>
<rect x="1054.4" y="480.5" width="24" height="3.1" fill="#5aac95"/>
<rect x="1054.4" y="478.2" width="24" height="2.3" fill="#d381ab"/>
<rect x="1054.4" y="477.4" width="24" height="0.8" fill="#e68155"/>
<text x="1066.4" y="504" transform="rotate(48 1066.4 504)" text-anchor="start" class="label">Living Room</text>
<rect x="1092.0" y="485.2" width="24" height="0.8" fill="#96a8c2"/>
<rect x="1092.0" y="484.4" width="24" height="0.8" fill="#6b85b0"/>
<rect x="1092.0" y="483.7" width="24" height="0.8" fill="#96c44c"/>
<rect x="1092.0" y="482.1" width="24" height="1.6" fill="#5aac95"/>
<rect x="1092.0" y="479.8" width="24" height="2.3" fill="#d381ab"/>
<text x="1104.0" y="504" transform="rotate(48 1104.0 504)" text-anchor="start" class="label">Outdoor</text>
</svg>